<?xml version="1.0" encoding="UTF-8"?>
<svg id="Layer_1" data-name="Layer 1" xmlns="http://www.w3.org/2000/svg" viewBox="0 0 1024 1024">
  <defs>
    <style>
      .cls-1 {
        fill: #9e005d;
      }

      .cls-2 {
        fill: #1a1a1a;
      }
    </style>
  </defs>
  <path class="cls-2" d="M636.06,102.22s10.44-2.11,8.78-33.11,35.4-36.32,45.67-36.67c39.61-1.33,54.06,20,109.2,33.27-9.41,5.58-29.95,7.37-45.81,2.29,24.67,21.78,40,36.22,119.56,46.44-18.89,13.56-42.89,14.89-65,9.5,0,0,41.06,28.17,119.06,19.83-17.33,34.22-153.33,88.44-246.67-43,0,0-13.33.67-13,17.33"/>
  <path class="cls-2" d="M511.08,960.39c25.07-236.41,114.39-256.35,67.7-412.28-50-167-269-170-269-170-33.56-5.78-94.23,147.56-81.45,228.37,10.15,50.49,68.45,183.66-15.87,340.75,101.21,46.62,205.15,41.11,298.62,13.16Z"/>
  <path class="cls-1" d="M190,936c7.47,4.04,14.95,7.77,22.46,11.23,84.32-157.1,26.02-290.26,15.87-340.75-12.78-80.81,47.89-234.14,81.45-228.37,0,0,219,3,269,170,46.69,155.93-42.63,175.87-67.7,412.28,185.39-55.42,329.59-199.06,329.59-199.06,0,0-145.33-9.33-130.67-125.33s29.33-245.33,29.33-245.33c29.33-113.33,21.33-122.67,21.33-122.67-8-130.67-136-190.67-158.67-168-22.67,22.67-62.67,32-62.67,32-109.33,36-188,73.33-273.33,244-85.33,170.67-61.33,234.67-61.33,234.67,0,0,34.67,102.67,29.33,166.67s-44,158.67-44,158.67Z"/>
</svg>